<svg xmlns="http://www.w3.org/2000/svg"  viewBox="0 0 40 40" width="480px" height="480px"><polygon fill="#f78f8f" stroke="#c74343" stroke-miterlimit="10" points="20,2.499 1.5,10.5 1.5,14.5 20,6.73 38.5,14.5 38.5,10.5"/><rect width="5" height="20" x="5.5" y="17.5" fill="#8bb7f0" stroke="#4e7ab5" stroke-miterlimit="10"/><rect width="5" height="24" x="13.5" y="13.5" fill="#bae0bd" stroke="#5e9c76" stroke-miterlimit="10"/><rect width="5" height="17" x="21.5" y="20.5" fill="#f78f8f" stroke="#c74343" stroke-miterlimit="10"/><rect width="5" height="20" x="29.5" y="17.5" fill="#e1ebf2" stroke="#788b9c" stroke-miterlimit="10"/><rect width="5" height="2" x="5.5" y="20.5" fill="#e1ebf2" stroke="#788b9c" stroke-miterlimit="10"/><rect width="5" height="2" x="13.5" y="16.5" fill="#8bb7f0" stroke="#4e7ab5" stroke-miterlimit="10"/><rect width="5" height="2" x="5.5" y="32.5" fill="#e1ebf2" stroke="#788b9c" stroke-miterlimit="10"/><rect width="5" height="2" x="13.5" y="32.5" fill="#8bb7f0" stroke="#4e7ab5" stroke-miterlimit="10"/><rect width="5" height="2" x="21.5" y="32.5" fill="#ffb5d2" stroke="#ea4c89" stroke-miterlimit="10"/><rect width="5" height="2" x="21.5" y="23.5" fill="#ffb5d2" stroke="#ea4c89" stroke-miterlimit="10"/><rect width="5" height="2" x="29.5" y="32.5" fill="#8bb7f0" stroke="#4e7ab5" stroke-miterlimit="10"/><rect width="5" height="2" x="29.5" y="20.5" fill="#8bb7f0" stroke="#4e7ab5" stroke-miterlimit="10"/></svg>