<svg xmlns="http://www.w3.org/2000/svg"  viewBox="0 0 64 64" width="64px" height="64px"><g data-name="Stroke copy"><rect width="58" height="6" x="3" y="51" fill="#fcbc04"/><rect width="6" height="4" x="6" y="57" fill="#e59730"/><rect width="6" height="4" x="52" y="57" fill="#e59730"/><path fill="#57b7eb" d="M23,47l-2.07-1.24a7.94,7.94,0,0,0-6.22-.86L7,47v4H23Z"/><path fill="#57b7eb" d="M23,47l2.07-1.24a7.94,7.94,0,0,1,6.22-.86L39,47v4H23Z"/><path fill="#a1d51c" d="M47,43H59a0,0,0,0,1,0,0v8a0,0,0,0,1,0,0H43a0,0,0,0,1,0,0V47A4,4,0,0,1,47,43Z"/><path fill="#c4f236" d="M35.34,31.11,22.62,18.38,32,13.69a3,3,0,0,1,3.47.57l4,4A3,3,0,0,1,40,21.73Z"/><path fill="#f9e109" d="M24.56,24.16h6a0,0,0,0,1,0,0v1a3,3,0,0,1-3,3h0a3,3,0,0,1-3-3v-1A0,0,0,0,1,24.56,24.16Z" transform="rotate(45 27.565 26.158)"/><path fill="#f8664f" d="M43.39,7.51l-7.34,7.34,2.83,2.83,7.34-7.35A4.59,4.59,0,0,1,49.44,9h0A4.56,4.56,0,0,1,54,13.56V43h4V13.56A8.56,8.56,0,0,0,49.44,5h0A8.55,8.55,0,0,0,43.39,7.51Z"/><path fill="#f89c8d" d="M49.44,5h0c-.33,0-.66,0-1,.06A8.56,8.56,0,0,1,56,13.56V34a2,2,0,0,0,2,2h0V13.56A8.56,8.56,0,0,0,49.44,5Z"/><rect width="16" height="3" x="43" y="48" fill="#7ab92d"/><path fill="#a1d51c" d="M39.47,18.27l-.8-.8-.6,1.2a6,6,0,0,1-9.61,1.56l-3.18-3.18-2.66,1.33L35.34,31.11,40,21.73A3,3,0,0,0,39.47,18.27Z"/><path fill="#aae1f9" d="M20.93,45.76a7.94,7.94,0,0,0-6.22-.86L7,47v3l7.71-2.1a7.94,7.94,0,0,1,6.22.86L23,50V47Z"/><path fill="#aae1f9" d="M31.29,44.9a7.94,7.94,0,0,0-6.22.86L23,47v3l2.07-1.24a7.94,7.94,0,0,1,6.22-.86L39,50V47Z"/><path fill="#f9e109" d="M7,51H61a0,0,0,0,1,0,0v3a0,0,0,0,1,0,0H10a3,3,0,0,1-3-3v0A0,0,0,0,1,7,51Z"/></g><g data-name="Outline copy"><path fill="#39519d" d="M3,52H61a1,1,0,0,0,0-2H44V47a3,3,0,0,1,3-3H58v3a1,1,0,0,0,2,0V43a1,1,0,0,0-1-1V26a1,1,0,0,0-2,0V42H55V13.56a5.56,5.56,0,0,0-9.49-3.93l-6.63,6.63-.71-.7-.71-.71L44.1,8.21A7.56,7.56,0,0,1,57,13.56V22a1,1,0,0,0,2,0V13.56A9.57,9.57,0,0,0,49.44,4a9.45,9.45,0,0,0-6.75,2.8L36,13.44a4,4,0,0,0-4.49-.64l-9.38,4.69a1,1,0,0,0-.54.73,1,1,0,0,0,.28.87l3.53,3.54h0a4,4,0,0,0,5.66,5.65l3.54,3.54a1,1,0,0,0,.7.29,1,1,0,0,0,.71-.29,1,1,0,0,0,0-1.41l-4.24-4.25h0l-.69-.68L24.3,18.66l8.14-4.07a2,2,0,0,1,2.31.37l.59.59h0L36.76,17l2,2a2,2,0,0,1,.38,2.31l-2.83,5.65a1,1,0,0,0,.45,1.34,1,1,0,0,0,1.34-.45l2.83-5.65a4,4,0,0,0-.65-4.49L46.93,11a3.52,3.52,0,0,1,2.51-1A3.57,3.57,0,0,1,53,13.56V42H49V41a1,1,0,0,0-2,0v1a5,5,0,0,0-5,5v3H24V47.57l1.59-1A7,7,0,0,1,31,45.86L38.74,48A1,1,0,0,0,39.26,46l-7.7-2.11a9,9,0,0,0-7,1L23,45.83l-1.56-.93a9,9,0,0,0-7-1L6.74,46A1,1,0,0,0,6,47v3H3a1,1,0,0,0,0,2ZM26.86,26.87a2,2,0,0,1,0-2.83l1.41,1.42,1.42,1.41A2,2,0,0,1,26.86,26.87ZM8,47.76l7-1.9a7,7,0,0,1,5.44.75l1.59,1V50H8Z"/><path fill="#39519d" d="M61,56H3a1,1,0,0,0,0,2H5v3a1,1,0,0,0,2,0V58h4v3a1,1,0,0,0,2,0V58H51v3a1,1,0,0,0,2,0V58h4v3a1,1,0,0,0,2,0V58h2a1,1,0,0,0,0-2Z"/></g></svg>