<svg xmlns="http://www.w3.org/2000/svg"  viewBox="0 0 100 100" width="150px" height="150px"><path fill="#c7ede6" d="M88.366,56.546c0.3-0.616,0.566-1.264,0.796-1.943c2.633-7.77-1.349-17.078-9.733-19.325c-0.906-11.384-8.906-19.193-17.941-20.526c-10.341-1.525-19.814,5.044-22.966,15.485c-3.799-1.346-7.501-1.182-10.99,0.857c-1.583,0.732-3.031,1.812-4.33,3.233c-1.907,2.086-3.147,4.719-3.652,7.495c-0.748,0.118-1.483,0.236-2.176,0.484c-4.04,1.449-6.589,4.431-7.288,8.923c-0.435,2.797,0.443,5.587,0.933,6.714c1.935,4.455,6.422,6.98,10.981,6.312c0.227-0.033,0.557,0.069,0.752,0.233c0.241,7.12,3.698,13.417,8.884,17.014c8.321,5.772,19.027,3.994,25.781-3.921c2.894,2.96,6.338,4.398,10.384,3.876c4.023-0.519,7.147-2.739,9.426-6.349c1.053,0.283,2.051,0.691,3.083,0.804c4.042,0.442,7.324-1.165,9.732-4.8c0.922-1.391,1.793-3.194,1.793-6.354C91.836,61.503,90.543,58.536,88.366,56.546z"/><path fill="#fdfcef" d="M73.63,50.171c0,0,11.691,0,11.762,0c2.7,0,4.888-2.189,4.888-4.889c0-2.355-1.666-4.321-3.884-4.784c0.026-0.206,0.043-0.415,0.043-0.628c0-2.796-2.267-5.063-5.063-5.063c-1.651,0-3.113,0.794-4.037,2.017c-0.236-3.113-3.017-5.514-6.27-5.116c-2.379,0.291-4.346,2.13-4.784,4.486c-0.14,0.756-0.126,1.489,0.014,2.177c-0.638-0.687-1.546-1.119-2.557-1.119c-1.85,0-3.361,1.441-3.48,3.261c-0.84-0.186-1.754-0.174-2.717,0.188c-1.84,0.691-3.15,2.423-3.227,4.387c-0.109,2.789,2.12,5.085,4.885,5.085c0.21,0,0.948,0,1.118,0h10.151"/><path fill="#472b29" d="M85.392,50.671H73.631c-0.276,0-0.5-0.224-0.5-0.5s0.224-0.5,0.5-0.5h11.762c2.42,0,4.389-1.969,4.389-4.389c0-2.067-1.466-3.873-3.486-4.295c-0.254-0.053-0.426-0.292-0.394-0.551c0.022-0.186,0.039-0.374,0.039-0.566c0-2.517-2.047-4.563-4.563-4.563c-1.438,0-2.765,0.663-3.639,1.818c-0.125,0.166-0.342,0.236-0.539,0.178c-0.2-0.059-0.342-0.234-0.358-0.441c-0.104-1.377-0.778-2.671-1.85-3.549c-1.082-0.888-2.456-1.282-3.86-1.109c-2.165,0.266-3.955,1.943-4.353,4.081c-0.124,0.667-0.12,1.335,0.013,1.986c0.044,0.22-0.062,0.442-0.262,0.544c-0.197,0.105-0.441,0.061-0.595-0.104c-0.575-0.618-1.353-0.959-2.19-0.959c-1.568,0-2.878,1.227-2.98,2.793c-0.01,0.146-0.082,0.28-0.199,0.367C60.448,41,60.295,41.03,60.157,41c-0.844-0.185-1.639-0.131-2.434,0.167c-1.669,0.627-2.836,2.209-2.903,3.938c-0.047,1.207,0.387,2.351,1.222,3.219c0.836,0.868,1.959,1.347,3.163,1.347h11.27c0.276,0,0.5,0.224,0.5,0.5s-0.224,0.5-0.5,0.5h-11.27c-1.479,0-2.857-0.587-3.884-1.653c-1.025-1.066-1.559-2.47-1.501-3.951c0.084-2.126,1.511-4.069,3.552-4.835c0.8-0.3,1.628-0.398,2.468-0.299c0.377-1.822,1.996-3.182,3.904-3.182c0.685,0,1.354,0.18,1.944,0.51c-0.001-0.386,0.035-0.773,0.107-1.16c0.476-2.562,2.619-4.572,5.214-4.89c1.676-0.202,3.319,0.266,4.615,1.328c1.004,0.823,1.717,1.951,2.038,3.193c1.013-0.916,2.319-1.426,3.714-1.426c3.067,0,5.563,2.496,5.563,5.563c0,0.083-0.002,0.166-0.007,0.248c2.254,0.673,3.848,2.776,3.848,5.164C90.781,48.254,88.364,50.671,85.392,50.671z"/><path fill="#fdfcef" d="M70.797,39.402c-1.808-0.119-3.365,1.13-3.476,2.789c-0.014,0.206-0.005,0.409,0.025,0.606c-0.349-0.394-0.865-0.661-1.458-0.7c-1.085-0.071-2.022,0.645-2.158,1.62c-0.197-0.054-0.403-0.09-0.616-0.104c-1.582-0.104-2.944,0.989-3.042,2.441"/><path fill="#472b29" d="M60.073,46.303c-0.006,0-0.011,0-0.017-0.001c-0.138-0.009-0.242-0.128-0.232-0.266c0.106-1.587,1.569-2.789,3.307-2.673c0.135,0.008,0.271,0.026,0.409,0.053c0.274-0.968,1.254-1.658,2.365-1.568c0.425,0.027,0.823,0.16,1.163,0.382c0.001-0.019,0.002-0.036,0.004-0.055c0.119-1.794,1.775-3.162,3.742-3.022c0.138,0.009,0.242,0.128,0.232,0.266c-0.008,0.132-0.118,0.233-0.249,0.233c-0.005,0-0.011,0-0.017-0.001c-1.664-0.09-3.108,1.039-3.211,2.558c-0.012,0.186-0.004,0.371,0.023,0.551c0.017,0.109-0.04,0.218-0.141,0.265c-0.102,0.045-0.22,0.021-0.294-0.061c-0.317-0.359-0.787-0.584-1.287-0.617c-0.926-0.05-1.775,0.557-1.893,1.405c-0.011,0.071-0.051,0.135-0.11,0.175s-0.135,0.05-0.203,0.032c-0.191-0.052-0.382-0.084-0.567-0.097c-1.448-0.098-2.688,0.896-2.776,2.208C60.313,46.202,60.204,46.303,60.073,46.303z"/><path fill="#fdfcef" d="M87.372,41.071c-1.699-0.801-3.664-0.234-4.389,1.267c-0.09,0.186-0.157,0.379-0.201,0.574"/><path fill="#472b29" d="M82.782,43.162c-0.018,0-0.036-0.002-0.055-0.006c-0.135-0.03-0.22-0.164-0.189-0.299c0.048-0.214,0.122-0.425,0.22-0.628c0.785-1.622,2.903-2.242,4.721-1.385c0.125,0.06,0.179,0.208,0.12,0.333c-0.059,0.126-0.21,0.177-0.333,0.12c-1.572-0.743-3.393-0.227-4.057,1.148c-0.082,0.169-0.144,0.344-0.183,0.521C83,43.082,82.896,43.162,82.782,43.162z"/><path fill="#fff" d="M18.031 48.582H8.001c-.276 0-.5-.224-.5-.5s.224-.5.5-.5h10.03c.276 0 .5.224.5.5S18.307 48.582 18.031 48.582zM20.912 48.582h-1.445c-.276 0-.5-.224-.5-.5s.224-.5.5-.5h1.445c.276 0 .5.224.5.5S21.188 48.582 20.912 48.582zM24.966 48.582h-2.546c-.276 0-.5-.224-.5-.5s.224-.5.5-.5h2.546c.276 0 .5.224.5.5S25.243 48.582 24.966 48.582zM24.966 50.447H15.35c-.276 0-.5-.224-.5-.5s.224-.5.5-.5h9.616c.276 0 .5.224.5.5S25.243 50.447 24.966 50.447zM13.619 50.447h-.58c-.276 0-.5-.224-.5-.5s.224-.5.5-.5h.58c.276 0 .5.224.5.5S13.895 50.447 13.619 50.447zM11.242 50.447H9.786c-.276 0-.5-.224-.5-.5s.224-.5.5-.5h1.456c.276 0 .5.224.5.5S11.518 50.447 11.242 50.447zM20.378 46.717H15.35c-.276 0-.5-.224-.5-.5s.224-.5.5-.5h5.027c.276 0 .5.224.5.5S20.654 46.717 20.378 46.717zM20.378 44.852h-1.257c-.276 0-.5-.224-.5-.5s.224-.5.5-.5h1.257c.276 0 .5.224.5.5S20.654 44.852 20.378 44.852zM17.109 52.312H15.35c-.276 0-.5-.224-.5-.5s.224-.5.5-.5h1.759c.276 0 .5.224.5.5S17.385 52.312 17.109 52.312zM71.209 22.305h-10.03c-.276 0-.5-.224-.5-.5s.224-.5.5-.5h10.03c.276 0 .5.224.5.5S71.485 22.305 71.209 22.305zM74.09 22.305h-1.446c-.276 0-.5-.224-.5-.5s.224-.5.5-.5h1.446c.276 0 .5.224.5.5S74.367 22.305 74.09 22.305zM78.144 22.305h-2.546c-.276 0-.5-.224-.5-.5s.224-.5.5-.5h2.546c.276 0 .5.224.5.5S78.421 22.305 78.144 22.305zM76.119 18.576h-9.616c-.276 0-.5-.224-.5-.5s.224-.5.5-.5h9.616c.276 0 .5.224.5.5S76.395 18.576 76.119 18.576zM64.771 18.576h-.58c-.276 0-.5-.224-.5-.5s.224-.5.5-.5h.58c.276 0 .5.224.5.5S65.048 18.576 64.771 18.576zM62.394 18.576h-1.456c-.276 0-.5-.224-.5-.5s.224-.5.5-.5h1.456c.276 0 .5.224.5.5S62.671 18.576 62.394 18.576zM73.555 20.44h-5.027c-.276 0-.5-.224-.5-.5s.224-.5.5-.5h5.027c.276 0 .5.224.5.5S73.832 20.44 73.555 20.44z"/><path fill="#fff" d="M73.555 18.576h-1.257c-.276 0-.5-.224-.5-.5s.224-.5.5-.5h1.257c.276 0 .5.224.5.5S73.832 18.576 73.555 18.576zM67.073 20.44h-1.759c-.276 0-.5-.224-.5-.5s.224-.5.5-.5h1.759c.276 0 .5.224.5.5S67.349 20.44 67.073 20.44z"/><path fill="#fdfcee" d="M68.548,72.446H36.638c-3.048,0-5.542-2.494-5.542-5.542V34.993c0-3.048,2.494-5.542,5.542-5.542h31.911c3.048,0,5.542,2.494,5.542,5.542v31.911C74.09,69.952,71.596,72.446,68.548,72.446z"/><path fill="#472b29" d="M68.548,73.146H36.637c-3.441,0-6.242-2.801-6.242-6.242v-31.91c0-3.441,2.801-6.242,6.242-6.242h31.911c3.441,0,6.242,2.801,6.242,6.242v31.91C74.791,70.345,71.99,73.146,68.548,73.146z M36.637,30.152c-2.67,0-4.842,2.172-4.842,4.842v31.91c0,2.67,2.172,4.842,4.842,4.842h31.911c2.67,0,4.842-2.172,4.842-4.842v-31.91c0-2.67-2.172-4.842-4.842-4.842H36.637z"/><path fill="#c0e5e4" d="M31.784 36.09H73.401V67.70400000000001H31.784z"/><path fill="#472b29" d="M64.923 36.59h-3.794c-.276 0-.5-.224-.5-.5s.224-.5.5-.5h3.794c.276 0 .5.224.5.5S65.199 36.59 64.923 36.59zM59.232 36.59h-27.82c-.276 0-.5-.224-.5-.5s.224-.5.5-.5h27.82c.276 0 .5.224.5.5S59.508 36.59 59.232 36.59zM73.774 36.59h-5.69c-.276 0-.5-.224-.5-.5s.224-.5.5-.5h5.69c.276 0 .5.224.5.5S74.05 36.59 73.774 36.59zM73.774 68.203H38.999c-.276 0-.5-.224-.5-.5s.224-.5.5-.5h34.775c.276 0 .5.224.5.5S74.05 68.203 73.774 68.203zM37.102 68.203h-5.69c-.276 0-.5-.224-.5-.5s.224-.5.5-.5h5.69c.276 0 .5.224.5.5S37.379 68.203 37.102 68.203z"/><path fill="#ee3e54" d="M36.47 31.664A1.265 1.265 0 1 0 36.47 34.194A1.265 1.265 0 1 0 36.47 31.664Z"/><path fill="#472b29" d="M36.469,34.493c-0.862,0-1.563-0.701-1.563-1.563s0.701-1.564,1.563-1.564s1.564,0.702,1.564,1.564S37.332,34.493,36.469,34.493z M36.469,31.964c-0.531,0-0.964,0.433-0.964,0.965c0,0.531,0.433,0.964,0.964,0.964c0.532,0,0.965-0.433,0.965-0.964C37.434,32.397,37.002,31.964,36.469,31.964z"/><path fill="#f1bc19" d="M40.896 31.664A1.265 1.265 0 1 0 40.896 34.194A1.265 1.265 0 1 0 40.896 31.664Z"/><path fill="#472b29" d="M40.896,34.493c-0.862,0-1.564-0.701-1.564-1.563s0.702-1.564,1.564-1.564s1.563,0.702,1.563,1.564S41.758,34.493,40.896,34.493z M40.896,31.964c-0.532,0-0.965,0.433-0.965,0.965c0,0.531,0.433,0.964,0.965,0.964c0.531,0,0.964-0.433,0.964-0.964C41.86,32.397,41.427,31.964,40.896,31.964z"/><path fill="#88ae45" d="M45.322 31.664A1.265 1.265 0 1 0 45.322 34.194A1.265 1.265 0 1 0 45.322 31.664Z"/><path fill="#472b29" d="M45.322,34.493c-0.862,0-1.564-0.701-1.564-1.563s0.702-1.564,1.564-1.564s1.564,0.702,1.564,1.564S46.184,34.493,45.322,34.493z M45.322,31.964c-0.532,0-0.965,0.433-0.965,0.965c0,0.531,0.433,0.964,0.965,0.964s0.965-0.433,0.965-0.964C46.287,32.397,45.854,31.964,45.322,31.964z"/><path fill="#fdfcef" d="M41.66,75.096c1.883,0,3.517,0,3.54,0c2.11,0,3.821-1.674,3.821-3.739c0-1.802-1.302-3.305-3.035-3.66c0.02-0.158,0.034-0.317,0.034-0.48c0-2.139-1.772-3.873-3.957-3.873c-1.29,0-2.433,0.607-3.155,1.543c-0.185-2.381-2.358-4.218-4.9-3.913c-1.859,0.223-3.397,1.629-3.739,3.431c-0.11,0.578-0.098,1.139,0.011,1.665c-0.498-0.525-1.208-0.856-1.998-0.856c-1.446,0-2.627,1.102-2.72,2.494c-0.657-0.142-1.371-0.133-2.123,0.143c-1.438,0.528-2.462,1.853-2.522,3.356c-0.085,2.133,1.657,3.889,3.818,3.889c0.164,0,0.741,0,0.874,0h7.934 M35.182,75.096h0.36"/><path fill="#472b29" d="M45.2,75.596h-3.54c-0.276,0-0.5-0.224-0.5-0.5s0.224-0.5,0.5-0.5h3.54c1.831,0,3.32-1.453,3.32-3.239c0-1.524-1.108-2.857-2.636-3.169c-0.255-0.053-0.428-0.293-0.396-0.552c0.017-0.138,0.029-0.276,0.029-0.419c0-1.86-1.551-3.373-3.457-3.373c-1.092,0-2.098,0.491-2.759,1.349c-0.125,0.164-0.342,0.231-0.538,0.174c-0.198-0.06-0.34-0.234-0.355-0.44c-0.08-1.02-0.566-1.944-1.371-2.604c-0.828-0.68-1.887-0.982-2.972-0.853c-1.646,0.197-3.006,1.442-3.308,3.029c-0.094,0.493-0.09,0.988,0.01,1.47c0.046,0.219-0.06,0.441-0.258,0.545c-0.197,0.102-0.44,0.062-0.594-0.099c-0.429-0.452-1.01-0.7-1.637-0.7c-1.169,0-2.145,0.891-2.221,2.027c-0.01,0.146-0.082,0.279-0.198,0.366c-0.116,0.089-0.265,0.12-0.407,0.089c-0.635-0.137-1.239-0.098-1.844,0.125c-1.262,0.463-2.145,1.631-2.195,2.906c-0.035,0.874,0.282,1.707,0.895,2.344c0.635,0.66,1.496,1.024,2.424,1.024h8.808c0.276,0,0.5,0.224,0.5,0.5s-0.224,0.5-0.5,0.5h-8.808c-1.186,0-2.331-0.485-3.145-1.332c-0.803-0.835-1.219-1.928-1.174-3.076c0.068-1.675,1.213-3.204,2.85-3.806c0.612-0.224,1.242-0.309,1.881-0.244c0.345-1.396,1.629-2.424,3.135-2.424c0.5,0,0.98,0.11,1.414,0.318c0.009-0.24,0.036-0.48,0.082-0.721c0.382-2.01,2.098-3.587,4.171-3.835c1.371-0.169,2.686,0.219,3.726,1.072c0.748,0.613,1.278,1.409,1.547,2.302c0.79-0.648,1.785-1.007,2.842-1.007c2.458,0,4.457,1.962,4.457,4.373c0,0.034-0.001,0.068-0.002,0.103c1.765,0.554,3.004,2.188,3.004,4.037C49.52,73.695,47.582,75.596,45.2,75.596z M35.542,75.596h-0.359c-0.276,0-0.5-0.224-0.5-0.5s0.224-0.5,0.5-0.5h0.359c0.276,0,0.5,0.224,0.5,0.5S35.818,75.596,35.542,75.596z"/><path fill="#472b29" d="M43.492 69.793c-.019 0-.037-.002-.056-.006-.135-.031-.219-.166-.188-.3.039-.17.097-.33.171-.479.604-1.224 2.273-1.676 3.721-1.006.126.058.181.206.122.331-.058.126-.209.18-.331.122-1.205-.556-2.578-.21-3.063.774-.058.114-.102.238-.131.368C43.709 69.715 43.606 69.793 43.492 69.793zM38.334 75.596h-1.107c-.276 0-.5-.224-.5-.5s.224-.5.5-.5h1.107c.276 0 .5.224.5.5S38.61 75.596 38.334 75.596z"/><path fill="#fdfcee" d="M44.03 40.429H60.911V45.247H44.03z"/><path fill="#472b29" d="M60.911,45.573H44.03c-0.18,0-0.325-0.146-0.325-0.325v-4.818c0-0.18,0.146-0.325,0.325-0.325h16.881c0.18,0,0.325,0.146,0.325,0.325v4.818C61.236,45.427,61.09,45.573,60.911,45.573z M44.355,44.922h16.23v-4.168h-16.23V44.922z"/><path fill="#fdfcee" d="M44.03 47.306H60.911V52.123999999999995H44.03z"/><path fill="#472b29" d="M60.911,52.45H44.03c-0.18,0-0.325-0.146-0.325-0.325v-4.818c0-0.18,0.146-0.325,0.325-0.325h16.881c0.18,0,0.325,0.146,0.325,0.325v4.818C61.236,52.304,61.09,52.45,60.911,52.45z M44.355,51.799h16.23v-4.168h-16.23V51.799z"/><path fill="#472b29" d="M48.925 48.926c.023.01.05.028.08.054l.005.011c.023.028.043.06.06.096.017.036.025.069.025.099 0 .051-.023.097-.069.138l-.559.375.559.371-.015-.012c.06.031.09.075.09.134 0 .025-.01.055-.028.088-.018.033-.039.061-.062.084l-.005.023c-.03.025-.057.042-.08.049-.023.007-.05.012-.08.012-.063 0-.11-.017-.14-.05l-.329-.214v.402c0 .028-.01.054-.03.078-.02.024-.045.045-.075.062-.03.016-.063.029-.1.038-.037.009-.072.014-.105.014h-.02c-.08 0-.132-.015-.157-.046-.025-.031-.041-.068-.048-.111v-.417l-.319.21c-.047.035-.095.054-.145.054-.026 0-.055-.006-.087-.017-.032-.012-.057-.031-.077-.059l-.005-.015c-.02-.023-.038-.054-.052-.092-.015-.038-.023-.071-.023-.099 0-.053.021-.097.065-.13l.549-.363-.549-.367c-.043-.035-.065-.077-.065-.126 0-.064.03-.125.09-.183l.015-.015c.023-.021.046-.035.068-.042.021-.008.046-.012.072-.012.023 0 .048.003.072.01.025.006.049.018.072.036l.33.218v-.37c0-.056.034-.101.102-.134.068-.033.139-.049.213-.049h.015c.077 0 .127.014.152.042.025.028.041.063.048.107l-.005.371.329-.218-.01.007c.046-.035.096-.054.15-.054C48.875 48.911 48.902 48.916 48.925 48.926zM51.827 48.926c.023.01.05.028.08.054l.005.011c.023.028.043.06.06.096.017.036.025.069.025.099 0 .051-.023.097-.069.138l-.559.375.559.371-.015-.012c.06.031.09.075.09.134 0 .025-.01.055-.028.088-.018.033-.039.061-.062.084l-.005.023c-.03.025-.057.042-.08.049-.023.007-.05.012-.08.012-.063 0-.11-.017-.14-.05l-.329-.214v.402c0 .028-.01.054-.03.078-.02.024-.045.045-.075.062-.03.016-.063.029-.1.038-.037.009-.072.014-.105.014h-.02c-.08 0-.132-.015-.157-.046-.025-.031-.041-.068-.048-.111v-.417l-.319.21c-.047.035-.095.054-.145.054-.026 0-.055-.006-.087-.017-.032-.012-.057-.031-.077-.059l-.005-.015c-.02-.023-.038-.054-.052-.092-.015-.038-.023-.071-.023-.099 0-.053.021-.097.065-.13l.549-.363L50.1 49.324c-.043-.035-.065-.077-.065-.126 0-.064.03-.125.09-.183l.015-.015c.023-.021.046-.035.068-.042.021-.008.046-.012.072-.012.023 0 .048.003.072.01.025.006.049.018.072.036l.33.218v-.37c0-.056.034-.101.102-.134.068-.033.139-.049.213-.049h.015c.077 0 .127.014.152.042.025.028.041.063.048.107l-.005.371.329-.218-.01.007c.046-.035.096-.054.15-.054C51.777 48.911 51.804 48.916 51.827 48.926zM54.73 48.926c.023.01.05.028.08.054l.005.011c.023.028.043.06.06.096.017.036.025.069.025.099 0 .051-.023.097-.069.138l-.559.375.559.371-.015-.012c.06.031.09.075.09.134 0 .025-.01.055-.028.088-.018.033-.039.061-.062.084l-.005.023c-.03.025-.057.042-.08.049-.023.007-.05.012-.08.012-.063 0-.11-.017-.14-.05l-.329-.214v.402c0 .028-.01.054-.03.078-.02.024-.045.045-.075.062-.03.016-.063.029-.1.038-.037.009-.072.014-.105.014h-.02c-.08 0-.132-.015-.157-.046-.025-.031-.041-.068-.048-.111v-.417l-.319.21c-.047.035-.095.054-.145.054-.026 0-.055-.006-.087-.017-.032-.012-.057-.031-.077-.059l-.005-.015c-.02-.023-.038-.054-.052-.092-.015-.038-.023-.071-.023-.099 0-.053.021-.097.065-.13l.549-.363-.549-.367c-.043-.035-.065-.077-.065-.126 0-.064.03-.125.09-.183l.015-.015c.023-.021.046-.035.068-.042.021-.008.046-.012.072-.012.023 0 .048.003.072.01.025.006.049.018.072.036l.33.218v-.37c0-.056.034-.101.102-.134.068-.033.139-.049.213-.049h.015c.077 0 .127.014.152.042.025.028.041.063.048.107l-.005.371.329-.218-.01.007c.046-.035.096-.054.15-.054C54.68 48.911 54.707 48.916 54.73 48.926zM57.632 48.926c.023.01.05.028.08.054l.005.011c.023.028.043.06.06.096.017.036.025.069.025.099 0 .051-.023.097-.069.138l-.559.375.559.371-.015-.012c.06.031.09.075.09.134 0 .025-.01.055-.028.088-.018.033-.039.061-.062.084l-.005.023c-.03.025-.057.042-.08.049-.023.007-.05.012-.08.012-.063 0-.11-.017-.14-.05l-.329-.214v.402c0 .028-.01.054-.03.078-.02.024-.045.045-.075.062-.03.016-.063.029-.1.038-.037.009-.072.014-.105.014h-.02c-.08 0-.132-.015-.157-.046-.025-.031-.041-.068-.048-.111v-.417l-.319.21c-.047.035-.095.054-.145.054-.026 0-.055-.006-.087-.017-.032-.012-.057-.031-.077-.059l-.005-.015c-.02-.023-.038-.054-.052-.092-.015-.038-.023-.071-.023-.099 0-.053.021-.097.065-.13l.549-.363-.549-.367c-.043-.035-.065-.077-.065-.126 0-.064.03-.125.09-.183l.015-.015c.023-.021.046-.035.068-.042.021-.008.046-.012.072-.012.023 0 .048.003.072.01.025.006.049.018.072.036l.33.218v-.37c0-.056.034-.101.102-.134.068-.033.139-.049.213-.049h.015c.077 0 .127.014.152.042.025.028.041.063.048.107l-.005.371.329-.218-.01.007c.046-.035.096-.054.15-.054C57.582 48.911 57.609 48.916 57.632 48.926z"/><path fill="#88ae45" d="M58.88,59.887H46.06c-1.117,0-2.03-0.914-2.03-2.03v-0.606c0-1.117,0.914-2.03,2.03-2.03h12.82c1.117,0,2.03,0.914,2.03,2.03v0.606C60.911,58.974,59.997,59.887,58.88,59.887z"/><path fill="#472b29" d="M58.881,60.187H46.06c-1.285,0-2.33-1.045-2.33-2.33v-0.605c0-1.285,1.045-2.33,2.33-2.33h12.82c1.285,0,2.33,1.045,2.33,2.33v0.605C61.211,59.142,60.166,60.187,58.881,60.187z M46.06,55.521c-0.954,0-1.73,0.776-1.73,1.73v0.605c0,0.954,0.776,1.73,1.73,1.73h12.82c0.954,0,1.73-0.776,1.73-1.73v-0.605c0-0.954-0.776-1.73-1.73-1.73H46.06z"/><path fill="#c0d078" d="M78.712,61.923v-5.439c0-2.981-2.859-5.344-5.786-5.344c-2.933,0-6.003,2.416-6.003,5.398v5.385h2.08v-5.317c0-1.769,2.033-3.198,3.722-3.198c1.685,0,3.56,1.4,3.56,3.166v5.349H78.712z"/><path fill="#472b29" d="M79.088,62.298H75.91v-5.725c0-1.572-1.712-2.791-3.185-2.791c-1.507,0-3.347,1.303-3.347,2.823v5.692h-2.83v-5.76c0-3.305,3.367-5.773,6.377-5.773c3.282,0,6.162,2.672,6.162,5.719V62.298z M76.66,61.548h1.678v-5.064c0-2.646-2.529-4.969-5.412-4.969c-2.603,0-5.627,2.194-5.627,5.023v5.01h1.33v-4.942c0-2.013,2.202-3.573,4.097-3.573c1.857,0,3.935,1.515,3.935,3.541V61.548z"/><path fill="#472b29" d="M78.713,62.423c-0.276,0-0.5-0.224-0.5-0.5v-5.439c0-2.58-2.471-4.844-5.287-4.844c-2.544,0-5.502,2.14-5.502,4.898v5.385c0,0.276-0.224,0.5-0.5,0.5s-0.5-0.224-0.5-0.5v-5.385c0-3.376,3.433-5.898,6.502-5.898c3.35,0,6.287,2.73,6.287,5.844v5.439C79.213,62.2,78.989,62.423,78.713,62.423z"/><path fill="#88ae45" d="M74.753,74.752h-4.218c-4.18,0-7.599-3.42-7.599-7.599v-5.078c0-1.037,0.848-1.885,1.885-1.885h15.647c1.037,0,1.885,0.848,1.885,1.885v5.078C82.353,71.332,78.933,74.752,74.753,74.752z"/><path fill="#472b29" d="M74.754,75.252h-4.219c-4.466,0-8.1-3.634-8.1-8.1v-5.079c0-1.315,1.07-2.385,2.386-2.385h15.646c1.315,0,2.386,1.07,2.386,2.386v5.078C82.853,71.619,79.219,75.252,74.754,75.252z M64.821,60.689c-0.764,0-1.386,0.621-1.386,1.385v5.079c0,3.915,3.185,7.1,7.1,7.1h4.219c3.915,0,7.1-3.185,7.1-7.1v-5.078c0-0.764-0.622-1.386-1.386-1.386H64.821z"/><path fill="#f1bc19" d="M63.282 62.79H82.006V65.911H63.282z"/><path fill="#472b29" d="M82.353 66.236H62.935c-.18 0-.325-.146-.325-.325s.146-.325.325-.325h19.418c.18 0 .325.146.325.325S82.533 66.236 82.353 66.236zM76.285 63.115h-13.35c-.18 0-.325-.146-.325-.325s.146-.325.325-.325h13.35c.18 0 .325.146.325.325S76.465 63.115 76.285 63.115zM80.099 63.115h-2.428c-.18 0-.325-.146-.325-.325s.146-.325.325-.325h2.428c.18 0 .325.146.325.325S80.279 63.115 80.099 63.115zM82.179 63.115h-1.04c-.18 0-.325-.146-.325-.325s.146-.325.325-.325h1.04c.18 0 .325.146.325.325S82.359 63.115 82.179 63.115z"/><path fill="#472b29" d="M62.935 65.47c-.025 0-.05-.008-.072-.022-.056-.04-.069-.118-.03-.175l1.802-2.567c.04-.057.116-.068.175-.03.056.04.069.118.03.175l-1.802 2.567C63.013 65.452 62.974 65.47 62.935 65.47zM65.623 65.891c-.024 0-.05-.008-.071-.022-.057-.04-.07-.118-.031-.175l2.08-2.966c.039-.056.117-.069.174-.03.057.04.07.118.031.174l-2.08 2.966C65.701 65.872 65.662 65.891 65.623 65.891zM68.281 65.891c-.025 0-.05-.008-.072-.022-.056-.04-.069-.118-.03-.175l2.081-2.966c.04-.057.117-.068.175-.03.056.04.069.118.03.175l-2.081 2.966C68.359 65.872 68.32 65.891 68.281 65.891zM70.939 65.891c-.025 0-.05-.008-.072-.022-.056-.04-.069-.118-.03-.175l2.081-2.966c.04-.057.117-.068.175-.03.056.04.069.118.03.175l-2.081 2.966C71.017 65.872 70.978 65.891 70.939 65.891zM73.597 65.891c-.025 0-.05-.008-.072-.022-.056-.04-.069-.118-.03-.175l2.081-2.966c.039-.057.117-.068.175-.03.056.04.069.118.03.175L73.7 65.838C73.675 65.872 73.636 65.891 73.597 65.891zM76.257 65.891c-.024 0-.05-.008-.071-.022-.057-.04-.07-.118-.031-.175l2.08-2.966c.039-.056.117-.069.174-.03.057.04.07.118.031.174l-2.08 2.966C76.335 65.872 76.296 65.891 76.257 65.891zM78.915 65.891c-.024 0-.05-.008-.071-.022-.057-.04-.07-.118-.031-.175l2.08-2.966c.039-.056.117-.069.174-.03.057.04.07.118.031.174l-2.08 2.966C78.993 65.872 78.954 65.891 78.915 65.891z"/><path fill="#6f913d" d="M73.728,72.152l-0.6-2.002c-0.042-0.114-0.115-0.211-0.012-0.276c0.311-0.196,0.493-0.577,0.387-0.992c-0.077-0.301-0.322-0.548-0.622-0.627c-0.599-0.157-1.137,0.291-1.137,0.865c0,0.316,0.164,0.592,0.411,0.75c0.106,0.068,0.07,0.147,0.027,0.266l-0.632,2.017H73.728z"/><path fill="#472b29" d="M73.728 72.427h-2.179c-.088 0-.17-.042-.222-.112-.052-.071-.067-.162-.041-.245l.633-2.017c0 0 .002-.004.004-.011-.286-.221-.455-.56-.455-.924 0-.366.167-.705.457-.929.29-.225.663-.298 1.025-.202.396.104.717.428.819.825.116.456-.041.927-.396 1.213l.012.029.605 2.018c.024.083.009.174-.043.243C73.897 72.386 73.815 72.427 73.728 72.427zM71.924 71.876h1.435l-.494-1.647c-.123-.284-.082-.472.106-.589.231-.146.336-.417.266-.69-.052-.204-.224-.377-.427-.431-.196-.05-.394-.014-.549.106-.154.118-.242.299-.242.493 0 .211.106.405.285.52.285.184.182.466.144.572L71.924 71.876zM73.265 70.105c0 0-.001.001-.002.001C73.264 70.106 73.265 70.105 73.265 70.105zM64.2 65.968c-.025 0-.05-.008-.072-.022-.056-.04-.069-.118-.03-.175l2.081-2.965c.039-.057.117-.068.175-.03.056.04.069.118.03.175l-2.081 2.965C64.278 65.95 64.239 65.968 64.2 65.968zM66.923 65.968c-.025 0-.05-.008-.072-.022-.056-.04-.069-.118-.03-.175l2.08-2.965c.04-.057.117-.068.175-.03.056.04.069.118.03.175l-2.08 2.965C67.002 65.95 66.963 65.968 66.923 65.968zM69.578 65.891c-.024 0-.05-.008-.071-.022-.057-.04-.07-.118-.031-.175l2.08-2.966c.039-.056.117-.069.174-.03.057.04.07.118.031.174l-2.08 2.966C69.656 65.872 69.617 65.891 69.578 65.891zM72.169 65.968c-.025 0-.05-.008-.072-.022-.056-.04-.069-.118-.03-.175l2.08-2.965c.04-.057.116-.068.175-.03.056.04.069.118.03.175l-2.08 2.965C72.247 65.95 72.208 65.968 72.169 65.968zM74.94 65.968c-.025 0-.05-.008-.072-.022-.056-.04-.069-.118-.03-.175l2.08-2.965c.04-.057.116-.068.175-.03.056.04.069.118.03.175l-2.08 2.965C75.018 65.95 74.979 65.968 74.94 65.968zM77.499 66.036c-.024 0-.05-.008-.071-.022-.057-.04-.07-.118-.031-.175l2.08-2.966c.039-.057.118-.069.174-.03.057.04.07.118.031.174l-2.08 2.966C77.577 66.017 77.538 66.036 77.499 66.036zM80.177 66.036c-.025 0-.05-.008-.072-.022-.056-.04-.069-.118-.03-.175l2.081-2.966c.04-.058.117-.067.175-.03.056.04.069.118.03.175l-2.081 2.966C80.256 66.017 80.216 66.036 80.177 66.036z"/></svg>